<svg xmlns="http://www.w3.org/2000/svg" width="1920" height="1080" viewBox="0 0 1920 1080" role="img" aria-labelledby="title desc">
  <title id="title">Global Synoptic Architecture of the Agentic AI-Driven Digital Twin Elevator System</title>
  <desc id="desc">Left-to-right architecture diagram for the Smart Elevator Digital Twin platform showing physical prototype, MQTT, bridge, Eclipse Ditto, n8n agents, TimescaleDB, SCADA dashboard, outputs, telemetry flow, command flow, and historical persistence.</desc>
  <defs>
    <style>
      .bg { fill: #f8fafc; }
      .title { font: 700 34px Inter, "IBM Plex Sans", Arial, sans-serif; fill: #0f172a; }
      .subtitle { font: 500 17px Inter, "IBM Plex Sans", Arial, sans-serif; fill: #475569; }
      .section-title { font: 700 15px Inter, "IBM Plex Sans", Arial, sans-serif; fill: #0f172a; letter-spacing: .2px; }
      .node-title { font: 700 13px Inter, "IBM Plex Sans", Arial, sans-serif; fill: #111827; }
      .node-text { font: 500 11px Inter, "IBM Plex Sans", Arial, sans-serif; fill: #334155; }
      .tiny { font: 500 10px Inter, "IBM Plex Sans", Arial, sans-serif; fill: #475569; }
      .legend { font: 600 11px Inter, "IBM Plex Sans", Arial, sans-serif; fill: #334155; }
      .section { fill: #ffffff; stroke: #cbd5e1; stroke-width: 1.2; }
      .node { fill: #ffffff; stroke-width: 1.4; }
      .implemented { stroke: #2563eb; }
      .safety { stroke: #dc2626; }
      .data { stroke: #64748b; }
      .ai { stroke: #ea580c; }
      .planned { fill: #f8fafc; stroke: #94a3b8; stroke-dasharray: 5 4; }
      .telemetry { stroke: #16a34a; stroke-width: 3; fill: none; }
      .sync { stroke: #2563eb; stroke-width: 3; fill: none; }
      .ai-flow { stroke: #ea580c; stroke-width: 3; fill: none; }
      .workflow { stroke: #7c3aed; stroke-width: 3; fill: none; }
      .command { stroke: #dc2626; stroke-width: 3.4; fill: none; }
      .history { stroke: #64748b; stroke-width: 2.5; stroke-dasharray: 8 7; fill: none; }
      .arrow-label { font: 700 11px Inter, "IBM Plex Sans", Arial, sans-serif; fill: #0f172a; paint-order: stroke; stroke: #ffffff; stroke-width: 4px; stroke-linejoin: round; }
      .badge { fill: #eff6ff; stroke: #bfdbfe; }
      .badge-text { font: 700 10px Inter, "IBM Plex Sans", Arial, sans-serif; fill: #1d4ed8; }
    </style>
    <marker id="arrowGreen" viewBox="0 0 10 10" refX="8" refY="5" markerWidth="7" markerHeight="7" orient="auto-start-reverse">
      <path d="M 0 0 L 10 5 L 0 10 z" fill="#16a34a"/>
    </marker>
    <marker id="arrowBlue" viewBox="0 0 10 10" refX="8" refY="5" markerWidth="7" markerHeight="7" orient="auto-start-reverse">
      <path d="M 0 0 L 10 5 L 0 10 z" fill="#2563eb"/>
    </marker>
    <marker id="arrowOrange" viewBox="0 0 10 10" refX="8" refY="5" markerWidth="7" markerHeight="7" orient="auto-start-reverse">
      <path d="M 0 0 L 10 5 L 0 10 z" fill="#ea580c"/>
    </marker>
    <marker id="arrowPurple" viewBox="0 0 10 10" refX="8" refY="5" markerWidth="7" markerHeight="7" orient="auto-start-reverse">
      <path d="M 0 0 L 10 5 L 0 10 z" fill="#7c3aed"/>
    </marker>
    <marker id="arrowRed" viewBox="0 0 10 10" refX="8" refY="5" markerWidth="7" markerHeight="7" orient="auto-start-reverse">
      <path d="M 0 0 L 10 5 L 0 10 z" fill="#dc2626"/>
    </marker>
    <marker id="arrowGray" viewBox="0 0 10 10" refX="8" refY="5" markerWidth="7" markerHeight="7" orient="auto-start-reverse">
      <path d="M 0 0 L 10 5 L 0 10 z" fill="#64748b"/>
    </marker>
  </defs>

  <rect class="bg" x="0" y="0" width="1920" height="1080"/>
  <rect x="28" y="24" width="1864" height="1032" rx="18" fill="#ffffff" stroke="#e2e8f0"/>

  <text class="title" x="64" y="72">Global Synoptic Architecture of the Agentic AI-Driven Digital Twin Elevator System</text>
  <text class="subtitle" x="64" y="103">ESP32-S3 prototype -> MQTT -> bridge/n8n -> Eclipse Ditto source of truth -> SCADA dashboard -> gated commands -> device</text>
  <rect class="badge" x="1495" y="49" width="335" height="34" rx="17"/>
  <text class="badge-text" x="1516" y="71">Research prototype: deterministic safety gate, not certified elevator safety hardware</text>

  <!-- Section containers -->
  <g id="physical">
    <rect class="section" x="50" y="145" width="220" height="720" rx="12"/>
    <text class="section-title" x="68" y="176">1. Physical Elevator</text>
    <rect class="node implemented" x="70" y="204" width="180" height="72" rx="8"/>
    <text class="node-title" x="88" y="228">4-floor prototype</text>
    <text class="node-text" x="88" y="248">Floors 0..3</text>
    <text class="node-text" x="88" y="264">Reduced-scale rig</text>
    <rect class="node implemented" x="70" y="292" width="180" height="84" rx="8"/>
    <text class="node-title" x="88" y="316">ESP32-S3 V6</text>
    <text class="node-text" x="88" y="336">Step-count planner</text>
    <text class="node-text" x="88" y="352">State machine</text>
    <text class="node-text" x="88" y="368">MQTT TLS client</text>
    <rect class="node implemented" x="70" y="392" width="180" height="100" rx="8"/>
    <text class="node-title" x="88" y="416">Inputs</text>
    <text class="node-text" x="88" y="436">Cabin + hall calls</text>
    <text class="node-text" x="88" y="452">Emergency switch</text>
    <text class="node-text" x="88" y="468">ADC temp/vibration/load</text>
    <text class="node-text" x="88" y="484">Simulated RFID events</text>
    <rect class="node implemented" x="70" y="508" width="180" height="116" rx="8"/>
    <text class="node-title" x="88" y="532">Actuators</text>
    <text class="node-text" x="88" y="552">NEMA17 stepper</text>
    <text class="node-text" x="88" y="568">Door DC motor</text>
    <text class="node-text" x="88" y="584">Fan relay GPIO16</text>
    <text class="node-text" x="88" y="600">Buzzer + 1604A LCD</text>
    <rect class="node safety" x="70" y="640" width="180" height="92" rx="8"/>
    <text class="node-title" x="88" y="664">Local interlocks</text>
    <text class="node-text" x="88" y="684">Target bounds</text>
    <text class="node-text" x="88" y="700">Door / overload / E-stop</text>
    <text class="node-text" x="88" y="716">Movement timeout</text>
    <rect class="planned" x="70" y="748" width="180" height="84" rx="8"/>
    <text class="node-title" x="88" y="772">Future hardening</text>
    <text class="node-text" x="88" y="792">Floor sensors + homing</text>
    <text class="node-text" x="88" y="808">Door limits / obstruction</text>
    <text class="node-text" x="88" y="824">Full RC522 RFID</text>
  </g>

  <g id="communication">
    <rect class="section" x="302" y="145" width="195" height="720" rx="12"/>
    <text class="section-title" x="320" y="176">2. Communication</text>
    <rect class="node implemented" x="322" y="224" width="155" height="84" rx="8"/>
    <text class="node-title" x="340" y="248">Mosquitto MQTT</text>
    <text class="node-text" x="340" y="268">Broker transport</text>
    <text class="node-text" x="340" y="284">Publish / subscribe</text>
    <text class="node-text" x="340" y="300">JSON payloads</text>
    <rect class="node implemented" x="322" y="334" width="155" height="112" rx="8"/>
    <text class="node-title" x="340" y="358">Topics</text>
    <text class="node-text" x="340" y="378">telemetry</text>
    <text class="node-text" x="340" y="394">events</text>
    <text class="node-text" x="340" y="410">status</text>
    <text class="node-text" x="340" y="426">commands</text>
    <rect class="node safety" x="322" y="474" width="155" height="104" rx="8"/>
    <text class="node-title" x="340" y="498">Security baseline</text>
    <text class="node-text" x="340" y="518">TLS 8883 ESP32 hop</text>
    <text class="node-text" x="340" y="534">Auth + ACLs</text>
    <text class="node-text" x="340" y="550">Anonymous disabled</text>
    <rect class="node implemented" x="322" y="612" width="155" height="80" rx="8"/>
    <text class="node-title" x="340" y="636">Identities</text>
    <text class="node-text" x="340" y="656">esp32, bridge, agents</text>
    <text class="node-text" x="340" y="672">dashboard read-only</text>
  </g>

  <g id="bridge">
    <rect class="section" x="530" y="145" width="220" height="720" rx="12"/>
    <text class="section-title" x="548" y="176">3. Bridge + Normalize</text>
    <rect class="node implemented" x="550" y="214" width="180" height="88" rx="8"/>
    <text class="node-title" x="568" y="238">Node bridge</text>
    <text class="node-text" x="568" y="258">services/ditto-bridge/bridge.js</text>
    <text class="node-text" x="568" y="274">Subscribes elevator/+</text>
    <text class="node-text" x="568" y="290">telemetry/events/status</text>
    <rect class="node implemented" x="550" y="328" width="180" height="100" rx="8"/>
    <text class="node-title" x="568" y="352">Normalization</text>
    <text class="node-text" x="568" y="372">Ditto-shaped + flat</text>
    <text class="node-text" x="568" y="388">Alias mapping</text>
    <text class="node-text" x="568" y="404">Duplicate suppression</text>
    <text class="node-text" x="568" y="420">Retries / backoff</text>
    <rect class="node implemented" x="550" y="454" width="180" height="90" rx="8"/>
    <text class="node-title" x="568" y="478">Heartbeat</text>
    <text class="node-text" x="568" y="498">Online/offline state</text>
    <text class="node-text" x="568" y="514">Telemetry freshness</text>
    <text class="node-text" x="568" y="530">microcontroller feature</text>
    <rect class="node safety" x="550" y="574" width="180" height="112" rx="8"/>
    <text class="node-title" x="568" y="598">Command forwarder</text>
    <text class="node-text" x="568" y="618">Ditto SSE watcher</text>
    <text class="node-text" x="568" y="634">Polling recovery</text>
    <text class="node-text" x="568" y="650">Stale replay guard</text>
    <text class="node-text" x="568" y="666">MQTT QoS 1 command</text>
  </g>

  <g id="ditto">
    <rect class="section" x="784" y="145" width="230" height="720" rx="12"/>
    <text class="section-title" x="802" y="176">4. Eclipse Ditto Twin</text>
    <rect class="node implemented" x="804" y="214" width="190" height="86" rx="8"/>
    <text class="node-title" x="822" y="238">Operational source</text>
    <text class="node-text" x="822" y="258">Thing state authority</text>
    <text class="node-text" x="822" y="274">REST + SSE</text>
    <text class="node-text" x="822" y="290">/api/2/things/{id}</text>
    <rect class="node implemented" x="804" y="326" width="190" height="72" rx="8"/>
    <text class="node-title" x="822" y="350">Thing ID</text>
    <text class="node-text" x="822" y="370">building:floor1:elevator</text>
    <text class="node-text" x="822" y="386">MQTT safe: building-floor1-elevator</text>
    <rect class="node implemented" x="804" y="424" width="190" height="132" rx="8"/>
    <text class="node-title" x="822" y="448">Feature model</text>
    <text class="node-text" x="822" y="468">cabin, door, motor</text>
    <text class="node-text" x="822" y="484">security, microcontroller</text>
    <text class="node-text" x="822" y="500">control, energy</text>
    <text class="node-text" x="822" y="516">performance, failures</text>
    <text class="node-text" x="822" y="532">AI, maintenance, incidents</text>
    <rect class="node safety" x="804" y="586" width="190" height="94" rx="8"/>
    <text class="node-title" x="822" y="610">Control feature</text>
    <text class="node-text" x="822" y="630">pending_command</text>
    <text class="node-text" x="822" y="646">last_forwarded_command</text>
    <text class="node-text" x="822" y="662">Command lifecycle state</text>
  </g>

  <g id="agents">
    <rect class="section" x="1048" y="145" width="245" height="720" rx="12"/>
    <text class="section-title" x="1066" y="176">5. Agentic AI Automation</text>
    <rect class="node ai" x="1068" y="204" width="205" height="64" rx="8"/>
    <text class="node-title" x="1086" y="228">n8n workflow runtime</text>
    <text class="node-text" x="1086" y="248">Self-hosted automation agents</text>
    <rect class="node ai" x="1068" y="288" width="205" height="196" rx="8"/>
    <text class="node-title" x="1086" y="312">Exported agents</text>
    <text class="node-text" x="1086" y="332">01 Ingestion + Surveillance</text>
    <text class="node-text" x="1086" y="348">02 Analysis AI Brain</text>
    <text class="node-text" x="1086" y="364">03 Control Agent</text>
    <text class="node-text" x="1086" y="380">04 Security + Maintenance</text>
    <text class="node-text" x="1086" y="396">05 Notification Agent</text>
    <text class="node-text" x="1086" y="412">06 Optimization + Audit</text>
    <text class="node-text" x="1086" y="444">Shared event envelope</text>
    <text class="node-text" x="1086" y="460">correlation_id + thing_id</text>
    <rect class="node safety" x="1068" y="508" width="205" height="94" rx="8"/>
    <text class="node-title" x="1086" y="532">Safety authority</text>
    <text class="node-text" x="1086" y="552">Deterministic rules decide</text>
    <text class="node-text" x="1086" y="568">LLM cannot authorize commands</text>
    <text class="node-text" x="1086" y="584">Risk thresholds stay in code</text>
    <rect class="planned" x="1068" y="632" width="205" height="86" rx="8"/>
    <text class="node-title" x="1086" y="656">Optional Ollama</text>
    <text class="node-text" x="1086" y="676">Local LLM explanations</text>
    <text class="node-text" x="1086" y="692">Non-safety-critical</text>
    <text class="node-text" x="1086" y="708">Off by default</text>
  </g>

  <g id="database">
    <rect class="section" x="1326" y="145" width="205" height="720" rx="12"/>
    <text class="section-title" x="1344" y="176">6. Persistence</text>
    <rect class="node data" x="1346" y="224" width="165" height="78" rx="8"/>
    <text class="node-title" x="1364" y="248">PostgreSQL</text>
    <text class="node-text" x="1364" y="268">TimescaleDB extension</text>
    <text class="node-text" x="1364" y="284">History + analytics</text>
    <rect class="node data" x="1346" y="336" width="165" height="150" rx="8"/>
    <text class="node-title" x="1364" y="360">Tables</text>
    <text class="node-text" x="1364" y="380">telemetry_raw</text>
    <text class="node-text" x="1364" y="396">audit_log</text>
    <text class="node-text" x="1364" y="412">control_command_log</text>
    <text class="node-text" x="1364" y="428">notification_outbox</text>
    <text class="node-text" x="1364" y="444">maintenance_work_orders</text>
    <text class="node-text" x="1364" y="460">system_health_history</text>
    <rect class="node data" x="1346" y="520" width="165" height="86" rx="8"/>
    <text class="node-title" x="1364" y="544">Analytics views</text>
    <text class="node-text" x="1364" y="564">hourly_risk</text>
    <text class="node-text" x="1364" y="580">hourly_energy</text>
    <text class="node-text" x="1364" y="596">incident summaries</text>
    <rect class="node data" x="1346" y="638" width="165" height="86" rx="8"/>
    <text class="node-title" x="1364" y="662">Audit fields</text>
    <text class="node-text" x="1364" y="682">correlation_id</text>
    <text class="node-text" x="1364" y="698">thing_id</text>
    <text class="node-text" x="1364" y="714">command_id</text>
  </g>

  <g id="dashboard">
    <rect class="section" x="1562" y="145" width="240" height="720" rx="12"/>
    <text class="section-title" x="1580" y="176">7. SCADA Dashboard</text>
    <rect class="node implemented" x="1582" y="204" width="200" height="78" rx="8"/>
    <text class="node-title" x="1600" y="228">Next.js ElevatorOS</text>
    <text class="node-text" x="1600" y="248">Operator interface</text>
    <text class="node-text" x="1600" y="264">Reads Ditto as authority</text>
    <rect class="node implemented" x="1582" y="306" width="200" height="92" rx="8"/>
    <text class="node-title" x="1600" y="330">Operational views</text>
    <text class="node-text" x="1600" y="350">Digital Twin + Monitoring</text>
    <text class="node-text" x="1600" y="366">AI Insights + Security</text>
    <text class="node-text" x="1600" y="382">Maintenance + Reports</text>
    <rect class="node implemented" x="1582" y="422" width="200" height="96" rx="8"/>
    <text class="node-title" x="1600" y="446">Server APIs</text>
    <text class="node-text" x="1600" y="466">/api/ditto proxy</text>
    <text class="node-text" x="1600" y="482">/api/history/*</text>
    <text class="node-text" x="1600" y="498">No DB creds in browser</text>
    <rect class="node safety" x="1582" y="548" width="200" height="116" rx="8"/>
    <text class="node-title" x="1600" y="572">Command route</text>
    <text class="node-text" x="1600" y="592">/api/commands</text>
    <text class="node-text" x="1600" y="608">Deterministic safety gate</text>
    <text class="node-text" x="1600" y="624">Accepted/rejected audit</text>
    <text class="node-text" x="1600" y="640">Rejected = zero Ditto writes</text>
    <rect class="planned" x="1582" y="694" width="200" height="70" rx="8"/>
    <text class="node-title" x="1600" y="718">UI MQTT role</text>
    <text class="node-text" x="1600" y="738">Connection status only</text>
    <text class="node-text" x="1600" y="754">Not command authority</text>
  </g>

  <g id="outputs">
    <rect class="section" x="1562" y="890" width="240" height="118" rx="12"/>
    <text class="section-title" x="1580" y="920">8. Outputs</text>
    <text class="node-text" x="1580" y="944">Commands, alerts, notifications</text>
    <text class="node-text" x="1580" y="962">Predictive maintenance work orders</text>
    <text class="node-text" x="1580" y="980">Analytics, reports, thesis evidence</text>
  </g>

  <!-- Main data and sync flows -->
  <path class="telemetry" marker-end="url(#arrowGreen)" d="M250 334 C282 334 290 266 322 266"/>
  <text class="arrow-label" x="268" y="246">telemetry/events/status</text>
  <path class="telemetry" marker-end="url(#arrowGreen)" d="M477 266 C505 266 518 258 550 258"/>
  <text class="arrow-label" x="488" y="247">subscribe</text>
  <path class="sync" marker-end="url(#arrowBlue)" d="M730 378 C760 378 772 257 804 257"/>
  <text class="arrow-label" x="742" y="335">REST feature writes</text>
  <path class="sync" marker-end="url(#arrowBlue)" d="M994 257 C1190 126 1448 126 1582 244"/>
  <text class="arrow-label" x="1160" y="128">SSE / polling twin state</text>

  <!-- Agent and persistence flows -->
  <path class="ai-flow" marker-end="url(#arrowOrange)" d="M994 490 C1018 490 1038 386 1068 386"/>
  <text class="arrow-label" x="1004" y="410">current twin state</text>
  <path class="ai-flow" marker-end="url(#arrowOrange)" d="M1273 386 C1298 386 1316 380 1346 380"/>
  <text class="arrow-label" x="1284" y="362">telemetry + audit</text>
  <path class="history" marker-end="url(#arrowGray)" d="M1511 563 C1540 563 1548 470 1582 470"/>
  <text class="arrow-label" x="1518" y="527">history APIs</text>
  <path class="workflow" marker-end="url(#arrowPurple)" d="M1273 332 C1300 270 1315 244 1346 244"/>
  <text class="arrow-label" x="1290" y="259">outbox / analytics</text>

  <!-- Command closed loop -->
  <path class="command" marker-end="url(#arrowRed)" d="M1682 664 C1682 825 940 820 900 680"/>
  <text class="arrow-label" x="1230" y="800">operator or agent command intent -> safety gate -> Ditto pending_command</text>
  <path class="command" marker-end="url(#arrowRed)" d="M804 633 C770 633 760 630 730 630"/>
  <text class="arrow-label" x="738" y="613">observe intent</text>
  <path class="command" marker-end="url(#arrowRed)" d="M550 630 C510 730 405 740 400 578"/>
  <text class="arrow-label" x="430" y="724">forward command</text>
  <path class="command" marker-end="url(#arrowRed)" d="M322 578 C280 620 250 660 250 686"/>
  <text class="arrow-label" x="268" y="653">MQTT commands</text>
  <path class="telemetry" marker-end="url(#arrowGreen)" d="M70 664 C18 565 20 406 70 334"/>
  <text class="arrow-label" x="28" y="512">state feedback</text>

  <!-- Rejection and output flows -->
  <path class="history" marker-end="url(#arrowGray)" d="M1582 606 C1518 626 1515 660 1511 682"/>
  <text class="arrow-label" x="1464" y="644">audit every decision</text>
  <path class="command" marker-end="url(#arrowRed)" d="M1682 664 C1710 748 1745 820 1718 890"/>
  <text class="arrow-label" x="1718" y="823">actions</text>
  <path class="ai-flow" marker-end="url(#arrowOrange)" d="M1273 570 C1380 794 1480 894 1562 944"/>
  <text class="arrow-label" x="1360" y="835">alerts / work orders / reports</text>

  <!-- Legend -->
  <g id="legend" transform="translate(64 920)">
    <rect x="0" y="0" width="1105" height="88" rx="12" fill="#f8fafc" stroke="#cbd5e1"/>
    <text class="section-title" x="20" y="29">Legend</text>
    <line class="telemetry" x1="20" y1="56" x2="82" y2="56" marker-end="url(#arrowGreen)"/>
    <text class="legend" x="96" y="60">Real-time telemetry/events/status</text>
    <line class="sync" x1="286" y1="56" x2="348" y2="56" marker-end="url(#arrowBlue)"/>
    <text class="legend" x="362" y="60">Ditto synchronization</text>
    <line class="ai-flow" x1="534" y1="56" x2="596" y2="56" marker-end="url(#arrowOrange)"/>
    <text class="legend" x="610" y="60">AI analysis and rules</text>
    <line class="command" x1="778" y1="56" x2="840" y2="56" marker-end="url(#arrowRed)"/>
    <text class="legend" x="854" y="60">Command/security action</text>
    <line class="history" x1="1006" y1="56" x2="1068" y2="56" marker-end="url(#arrowGray)"/>
  </g>

  <text class="tiny" x="64" y="1030">Caption: Telemetry flows from the ESP32-S3 prototype through MQTT and the bridge into Eclipse Ditto. Commands return only after deterministic safety validation, Ditto pending command creation, bridge forwarding, MQTT delivery, and firmware interlocks.</text>
</svg>
